<svg id="Layer_1" data-name="Layer 1" xmlns="http://www.w3.org/2000/svg" viewBox="0 0 412.62 217.89"><defs><style>.cls-1{fill:#ffa726;}.cls-2{fill:#ffb74d;}.cls-3{fill:#fff;}.cls-4{fill:#ef6c00;}.cls-5{fill:#e57373;}.cls-6{fill:#ef5350;}.cls-7{fill:#f44336;}.cls-8{fill:#42a5f5;}.cls-9{fill:#64b5f6;}.cls-10{fill:#26a69a;}.cls-11{fill:#4db6ac;}</style></defs><title>recast-ai-about-bot-in-line</title><rect class="cls-1" y="85.02" width="113.55" height="132.87"/><rect class="cls-2" x="9.5" width="78.02" height="93.28"/><rect class="cls-1" x="87.28" y="10.75" width="4.25" height="26.51"/><rect class="cls-1" x="5" y="10.75" width="5.5" height="26.51"/><circle class="cls-3" cx="31.51" cy="35.76" r="12"/><circle class="cls-3" cx="65.27" cy="35.76" r="12"/><circle class="cls-4" cx="31.51" cy="37.26" r="4.75"/><circle class="cls-4" cx="65.27" cy="37.26" r="4.75"/><rect class="cls-3" x="10.75" y="103.78" width="20.01" height="7"/><rect class="cls-3" x="34.51" y="103.78" width="10.75" height="7"/><path class="cls-5" d="M200.32,150.42H81.41a8.57,8.57,0,0,1-8.72-8.72v-89A8.57,8.57,0,0,1,81.41,44H200.32A8.57,8.57,0,0,1,209,52.73v89A8.94,8.94,0,0,1,200.32,150.42Z"/><circle class="cls-3" cx="119.5" cy="93.72" r="15.12"/><circle class="cls-3" cx="162.53" cy="93.72" r="15.12"/><path class="cls-6" d="M215.44,109.71h0a6.45,6.45,0,0,1-6.4-6.4V74a6.45,6.45,0,0,1,6.4-6.4h0a6.45,6.45,0,0,1,6.4,6.4v29.36A6.45,6.45,0,0,1,215.44,109.71Z"/><path class="cls-6" d="M67.17,109.42h0a6.45,6.45,0,0,1-6.4-6.4V74a6.45,6.45,0,0,1,6.4-6.4h0a6.45,6.45,0,0,1,6.4,6.4v29.36A6.4,6.4,0,0,1,67.17,109.42Z"/><path class="cls-6" d="M172.12,161.46H109.9a5.72,5.72,0,0,1-5.52-5.52h0a5.72,5.72,0,0,1,5.52-5.52h62.22a5.72,5.72,0,0,1,5.52,5.52h0A5.52,5.52,0,0,1,172.12,161.46Z"/><path class="cls-7" d="M200.32,217.29H81.41a8.57,8.57,0,0,1-8.72-8.72V169.31a8.57,8.57,0,0,1,8.72-8.72H200.32a8.57,8.57,0,0,1,8.72,8.72v39.25A8.94,8.94,0,0,1,200.32,217.29Z"/><circle class="cls-5" cx="119.5" cy="97.21" r="6.11"/><circle class="cls-5" cx="162.53" cy="97.21" r="6.11"/><rect class="cls-3" x="85.77" y="170.48" width="27.62" height="8.14"/><path class="cls-8" d="M274.54,144H193.82a3.43,3.43,0,0,1-3.49-3.49V59.75a3.58,3.58,0,0,1,3.49-3.49h80.73A3.58,3.58,0,0,1,278,59.75v80.73A3.43,3.43,0,0,1,274.54,144Z"/><path class="cls-3" d="M255.93,103.49H239.18a3.43,3.43,0,0,1-3.49-3.49V80a3.43,3.43,0,0,1,3.49-3.49h16.75A3.58,3.58,0,0,1,259.42,80v20A3.43,3.43,0,0,1,255.93,103.49Z"/><path class="cls-3" d="M228.48,103.49H211.73a3.43,3.43,0,0,1-3.49-3.49V80a3.58,3.58,0,0,1,3.49-3.49h16.75A3.58,3.58,0,0,1,232,80v20A3.58,3.58,0,0,1,228.48,103.49Z"/><circle class="cls-8" cx="220.8" cy="90" r="5.82"/><circle class="cls-8" cx="248.02" cy="90" r="5.82"/><rect class="cls-9" x="216.38" y="48.82" width="33.97" height="8.84"/><rect class="cls-9" x="226.62" y="40.91" width="13.49" height="9.07"/><rect class="cls-8" x="224.29" y="143.97" width="21.4" height="13.49"/><path class="cls-9" d="M274.54,217.29H193.82c-1.86,0-3.49-2.09-3.49-4.47V152.63c0-2.38,1.63-4.47,3.49-4.47h80.73c1.86,0,3.49,1.79,3.49,4.47v60.19C278,215.2,276.64,217.29,274.54,217.29Z"/><rect class="cls-3" x="200.79" y="157.46" width="9.31" height="9.31"/><rect class="cls-3" x="212.66" y="157.46" width="9.31" height="9.31"/><rect class="cls-10" x="285.82" y="72.06" width="88.3" height="33.11"/><path class="cls-11" d="M330,66.14a60.89,60.89,0,0,0-61.11,61.11h122A60.5,60.5,0,0,0,330,66.14Z"/><circle class="cls-3" cx="311.67" cy="109.48" r="12.92"/><circle class="cls-3" cx="348.28" cy="109.48" r="12.92"/><rect class="cls-11" x="299.01" y="126.17" width="62.19" height="17.77"/><path class="cls-10" d="M330,135.05c-45.5,0-82.38,37.42-82.38,82.38h165C412.62,172.47,375.47,135.05,330,135.05Z"/><circle class="cls-11" cx="311.67" cy="109.48" r="5.11"/><circle class="cls-11" cx="348.28" cy="109.48" r="5.11"/></svg>