<svg id="Layer_1" data-name="Layer 1" xmlns="http://www.w3.org/2000/svg" viewBox="0 0 79.1 106.04"><defs><style>.cls-1{fill:#49505a;}.cls-2{fill:#54c6d7;}.cls-3{fill:#9bdae8;}.cls-4{fill:#fec40d;}.cls-5{fill:#ffdc6a;}.cls-6{fill:#42a9d7;}.cls-7{fill:#e6e8eb;}</style></defs><title>2177-icoana_3</title><g id="ABOUT_US" data-name="ABOUT US"><rect class="cls-1" x="45.5" width="3" height="6.52"/><rect class="cls-1" x="331.63" y="471.51" width="3" height="6.52" transform="translate(-493.01 -237.29) rotate(-30)"/><rect class="cls-1" x="321.43" y="482.07" width="3" height="6.52" transform="translate(-559.08 54.94) rotate(-60.01)"/><rect class="cls-1" x="72.58" y="29.63" width="6.52" height="3"/><rect class="cls-1" x="368.79" y="482.99" width="6.52" height="3" transform="translate(-492.52 -216.84) rotate(-29.97)"/><rect class="cls-1" x="358.23" y="472.78" width="6.52" height="3" transform="translate(-530.24 82.79) rotate(-60.01)"/><path class="cls-2" d="M363.65,573.51V541.16A30,30,0,1,0,312.5,520c0,0.45,0,.9,0,1.36l-4.18,7.25-5.5,9.53h7V550a8.08,8.08,0,0,0,8.08,8.08h12.79v15.48" transform="translate(-300.25 -467.47)"/><path class="cls-1" d="M365.15,573.51h-3v-33l0.44-.44A28.45,28.45,0,1,0,314,520c0,0.43,0,.86,0,1.29l0,0.44-8.6,14.9h5.86V550a6.58,6.58,0,0,0,6.58,6.58h14.29v17h-3v-14H317.88a9.59,9.59,0,0,1-9.58-9.58V539.63h-8.06L311,521c0-.33,0-0.65,0-1a31.45,31.45,0,1,1,54.16,21.77v31.74Z" transform="translate(-300.25 -467.47)"/><polygon class="cls-3" points="20.95 75.36 27.8 66.73 24.25 60.9 15.38 61.66 14.87 71.05 20.95 75.36"/><path class="cls-3" d="M322,520.26a29.66,29.66,0,0,0-7-1.74,29.83,29.83,0,0,1,9.31-19.42,29.42,29.42,0,0,1,4.7,2.25A29.83,29.83,0,0,0,322,520.26Z" transform="translate(-300.25 -467.47)"/><path class="cls-4" d="M328.37,499.78a19.36,19.36,0,1,1,38.72,0c0,0.63-.47,9.58-7.76,19-2.14,2.83-1.78,8.53-1.76,8.53H337.84s0.41-5.7-1.72-8.53C328.83,509.35,328.37,500.41,328.37,499.78Z" transform="translate(-300.25 -467.47)"/><circle class="cls-5" cx="49.71" cy="32.03" r="13.55"/><path class="cls-1" d="M357.57,528.78H337.84v-1.5l-1.49-.18c0.08-.81.14-5.37-1.43-7.46-7.84-10.09-8.06-19.78-8.06-19.87a20.86,20.86,0,1,1,41.72,0c0,0.09-.22,9.78-8.07,19.89-1.54,2.05-1.54,6.47-1.46,7.45l-1.49.13v1.53Zm-18.17-3H356c0-2.29.5-5.79,2.11-7.93,7.23-9.31,7.46-18,7.46-18.07a17.86,17.86,0,1,0-35.72,0c0,0.09.23,8.77,7.44,18.05C338.92,520,339.38,523.49,339.4,525.78Z" transform="translate(-300.25 -467.47)"/><line class="cls-6" x1="42.6" y1="59.73" x2="38.97" y2="37.31"/><rect class="cls-1" x="339.54" y="504.63" width="3" height="22.71" transform="translate(-378.44 -406.24) rotate(-9.21)"/><line class="cls-6" x1="52.36" y1="59.73" x2="55.99" y2="37.31"/><rect class="cls-1" x="343.07" y="514.49" width="22.71" height="3" transform="translate(-511.92 315.73) rotate(-80.78)"/><polygon class="cls-1" points="40.87 42.35 38.05 38.98 40.35 37.05 40.87 37.68 42.55 35.68 44.23 37.68 45.91 35.68 47.59 37.68 49.27 35.68 50.95 37.68 52.63 35.69 54.31 37.69 54.85 37.05 57.14 38.98 54.31 42.34 52.63 40.34 50.94 42.35 49.27 40.35 47.58 42.35 45.91 40.35 44.23 42.35 42.55 40.35 40.87 42.35"/><path class="cls-7" d="M358.87,531.53a1.62,1.62,0,0,1,0-3.14,1.64,1.64,0,0,0-1.58-1.63H338.17a4.91,4.91,0,0,1-1.58,4.77,1.62,1.62,0,0,1,0,3.14,1.64,1.64,0,0,0,1.58,1.63v0.14a2.19,2.19,0,0,0,2.19,2.18H355.1a2.19,2.19,0,0,0,2.19-2.18v-0.14A4.92,4.92,0,0,1,358.87,531.53Z" transform="translate(-300.25 -467.47)"/><path class="cls-1" d="M355.1,540.12H340.37a3.7,3.7,0,0,1-3.55-2.66,7.3,7.3,0,0,1-1.29-7.5,3.1,3.1,0,0,1-.43-1.57,3.13,3.13,0,0,1,3-3.13h19.18a3.14,3.14,0,0,1,3.08,3.13,3.09,3.09,0,0,0,0,3.14,3.09,3.09,0,0,0,0,3.14,3.12,3.12,0,0,1-1.72,2.79A3.7,3.7,0,0,1,355.1,540.12Zm-16.92-11.86a0.16,0.16,0,0,0-.08.13,0.14,0.14,0,0,0,.1.12v2.89a0.13,0.13,0,0,0,0,.25v2.89a0.13,0.13,0,0,0,0,.25l1.44,1.5v0.14a0.69,0.69,0,0,0,.69.68H355.1a0.69,0.69,0,0,0,.69-0.68v-0.14l1.44-1.5a0.13,0.13,0,0,0,0-.25v-2.89a0.13,0.13,0,0,0,0-.25v-2.89a0.14,0.14,0,0,0,.1-0.12,0.13,0.13,0,0,0-.14-0.13H338.17Z" transform="translate(-300.25 -467.47)"/><rect class="cls-1" x="37.53" y="62.75" width="15.75" height="3"/></g></svg>